<?xml version="1.0" standalone="no"?>
<!DOCTYPE svg PUBLIC "-//W3C//DTD SVG 20010904//EN"
 "http://www.w3.org/TR/2001/REC-SVG-20010904/DTD/svg10.dtd">
<svg version="1.0" xmlns="http://www.w3.org/2000/svg"
 width="1074.000000pt" height="2158.000000pt" viewBox="0 0 1074.000000 2158.000000"
 preserveAspectRatio="xMidYMid meet">

<g transform="translate(0.000000,2158.000000) scale(0.100000,-0.100000)"
fill="#000000" stroke="none">
<path d="M8824 20963 c-318 -340 -676 -718 -796 -840 -233 -239 -361 -391
-438 -518 -218 -363 -322 -771 -307 -1205 12 -344 90 -654 238 -954 98 -197
214 -358 427 -593 59 -65 154 -174 212 -243 133 -159 288 -319 365 -377 60
-46 182 -110 191 -101 2 3 6 95 7 204 2 181 0 205 -20 269 -34 107 -91 183
-288 385 -99 102 -210 223 -247 270 -324 420 -492 842 -492 1240 0 271 78 502
261 780 143 216 138 211 1203 1346 465 495 856 912 869 927 l24 27 -315 0
-315 0 -579 -617z"/>
<path d="M3180 19631 c-74 -40 -95 -151 -79 -413 15 -235 6 -2313 -12 -2598
-7 -121 -13 -438 -13 -725 -1 -425 2 -539 17 -685 46 -446 128 -763 271 -1055
189 -385 453 -642 861 -841 399 -194 679 -234 1609 -226 l348 3 -6 31 c-23
115 -139 269 -243 322 -121 61 -169 68 -533 76 -335 8 -413 15 -575 56 -214
53 -461 165 -624 282 -424 301 -620 695 -671 1346 -14 183 -13 3102 2 3306 6
85 11 248 12 362 1 205 2 207 26 233 56 60 -45 56 1483 55 943 0 1440 -4 1517
-11 63 -7 185 -12 270 -12 272 -2 360 35 434 181 23 45 67 182 81 250 l7 32
-264 0 c-145 0 -429 5 -633 10 -984 26 -1154 30 -1475 31 -311 2 -358 0 -477
-19 -165 -27 -296 -28 -601 -2 -129 11 -338 22 -465 25 -217 5 -234 5 -267
-14z"/>
<path d="M8215 19371 c-50 -23 -129 -104 -150 -153 -47 -114 -5 -188 213 -379
147 -128 191 -177 279 -311 192 -292 297 -647 334 -1128 14 -188 6 -669 -16
-915 -30 -340 -30 -372 1 -570 l29 -180 -3 -995 c-4 -1063 -4 -1073 -53 -1141
-11 -16 -39 -39 -62 -51 l-42 -22 -873 3 -874 3 12 -23 c31 -60 106 -152 167
-208 125 -113 306 -188 526 -217 103 -14 165 -15 402 -8 154 5 458 9 675 9
383 0 396 1 442 22 91 42 82 -124 91 1613 11 2017 6 2383 -38 2965 -18 232
-36 349 -76 491 -78 280 -247 605 -432 833 -75 93 -256 272 -316 314 -53 36
-131 67 -169 67 -15 0 -45 -9 -67 -19z"/>
<path d="M9485 15683 c-12 -108 -9 -365 5 -423 30 -125 85 -200 239 -329 139
-116 233 -216 421 -445 256 -312 467 -539 563 -600 l27 -18 0 315 0 316 -52
48 c-28 26 -90 94 -137 150 -111 131 -309 367 -431 513 -202 242 -382 410
-516 481 -112 59 -111 60 -119 -8z"/>
<path d="M3912 15195 c-89 -20 -162 -61 -190 -110 -20 -34 -22 -50 -19 -110 4
-67 36 -167 71 -220 l14 -22 91 23 c318 81 640 40 961 -120 404 -201 739 -513
1755 -1631 333 -366 975 -1053 1215 -1300 86 -88 164 -178 174 -199 39 -82 3
-153 -145 -288 -179 -163 -497 -465 -655 -623 -221 -221 -333 -370 -389 -518
l-24 -65 167 -7 c196 -9 288 1 369 40 70 34 159 122 543 535 150 162 366 387
479 500 341 339 353 390 142 600 -118 118 -2030 2151 -2356 2505 -446 484
-668 673 -962 820 -200 99 -453 170 -702 195 -146 14 -462 12 -539 -5z"/>
<path d="M1783 13368 c-626 -667 -1193 -1272 -1260 -1343 -151 -164 -251 -265
-375 -381 -110 -104 -142 -155 -142 -229 0 -86 37 -139 240 -340 170 -169
2150 -2273 2479 -2635 317 -349 435 -450 654 -560 190 -95 376 -155 577 -185
133 -20 395 -19 537 1 380 55 769 236 1101 513 135 113 650 625 718 716 56 73
138 223 138 251 0 28 -337 34 -451 8 -127 -29 -269 -144 -576 -468 -403 -424
-611 -552 -952 -586 -342 -34 -688 25 -911 156 -169 99 -298 223 -630 605
-149 172 -1871 2010 -2122 2265 -176 179 -205 224 -193 299 13 93 116 208 355
402 73 59 162 144 216 205 129 147 363 395 624 663 548 562 674 695 912 966
201 230 272 322 317 412 62 125 70 242 21 338 -23 44 -110 139 -128 139 -6 0
-523 -546 -1149 -1212z"/>
<path d="M5125 9823 c-317 -15 -577 -82 -873 -223 -324 -156 -531 -314 -725
-555 -172 -214 -188 -345 -55 -471 54 -53 97 -74 146 -74 75 0 146 64 301 272
87 118 168 193 303 284 243 162 511 271 798 325 86 16 3646 14 3728 -2 41 -8
63 -20 91 -48 67 -67 65 -29 62 -1024 l-3 -898 39 16 c170 71 286 220 343 440
45 177 53 292 44 670 -5 193 -8 518 -6 723 3 315 1 382 -13 435 -18 71 -53
114 -99 122 -30 5 -3978 13 -4081 8z"/>
<path d="M10689 9023 c-19 -21 -60 -74 -91 -118 -31 -44 -89 -116 -129 -160
-92 -102 -643 -685 -1045 -1105 -569 -596 -769 -809 -1040 -1111 -82 -91 -221
-242 -310 -336 -319 -338 -447 -510 -563 -753 -95 -198 -168 -438 -207 -675
-29 -171 -25 -428 8 -617 28 -160 45 -200 99 -236 31 -22 43 -23 120 -20 66 3
93 9 121 26 64 40 68 57 66 348 -2 355 29 557 127 819 120 323 258 528 594
880 345 362 2139 2272 2198 2340 33 39 70 79 82 89 21 19 21 25 21 343 0 180
-4 323 -9 323 -5 0 -24 -17 -42 -37z"/>
<path d="M3191 7712 c-6 -20 -18 -82 -27 -137 -15 -92 -17 -272 -14 -2157 1
-1131 6 -2074 10 -2095 21 -90 114 -129 287 -119 54 4 764 10 1578 15 931 5
1534 13 1625 20 80 6 221 18 314 26 136 12 208 13 380 4 319 -16 459 -3 644
63 479 169 944 642 1115 1134 46 133 81 285 112 489 14 94 41 267 60 385 19
118 39 269 46 335 15 155 15 506 0 613 -14 97 -47 232 -60 245 -14 14 -96 -49
-174 -132 -70 -75 -117 -159 -142 -256 -19 -74 -35 -247 -35 -381 0 -133 -25
-395 -56 -574 -60 -356 -168 -644 -334 -893 -195 -291 -437 -461 -769 -538
-230 -53 -181 -52 -2181 -56 l-1855 -4 -44 23 c-25 13 -54 36 -65 51 -25 33
-26 75 -8 327 15 212 16 2940 2 3115 -6 66 -17 147 -25 180 -45 175 -152 289
-322 338 l-53 16 -9 -37z"/>
<path d="M8090 3197 c-144 -52 -180 -70 -180 -86 0 -28 58 -140 104 -200 25
-32 118 -134 208 -227 396 -409 2165 -2303 2283 -2442 72 -85 154 -175 183
-200 l52 -45 0 307 0 307 -83 83 c-46 45 -151 172 -233 282 -225 301 -356 447
-1054 1174 -240 250 -469 491 -507 535 -39 44 -119 135 -177 203 -252 289
-417 374 -596 309z"/>
</g>
</svg>
